
<svg id="visual" viewBox="0 0 900 600" width="900" height="600" xmlns="http://www.w3.org/2000/svg" xmlns:xlink="http://www.w3.org/1999/xlink" version="1.1"><rect x="0" y="0" width="900" height="600" fill="#002233"></rect><path d="M0 394L21.5 394C43 394 86 394 128.8 402.3C171.7 410.7 214.3 427.3 257.2 430.3C300 433.3 343 422.7 385.8 427.2C428.7 431.7 471.3 451.3 514.2 454.5C557 457.7 600 444.3 642.8 446.8C685.7 449.3 728.3 467.7 771.2 480.5C814 493.3 857 500.7 878.5 504.3L900 508L900 601L878.5 601C857 601 814 601 771.2 601C728.3 601 685.7 601 642.8 601C600 601 557 601 514.2 601C471.3 601 428.7 601 385.8 601C343 601 300 601 257.2 601C214.3 601 171.7 601 128.8 601C86 601 43 601 21.5 601L0 601Z" fill="#0066FF" stroke-linecap="round" stroke-linejoin="miter"></path></svg>